<?xml version="1.0" encoding="UTF-8"?>
<svg version="1.1" xmlns="http://www.w3.org/2000/svg" width="512" height="512">
<path d="M0 0 C1.05832031 0.37382812 2.11664063 0.74765625 3.20703125 1.1328125 C16.14271642 6.14767376 26.28362355 13.2970998 36 23 C37.22396484 24.2065625 37.22396484 24.2065625 38.47265625 25.4375 C44.67541321 31.9062414 48.84155935 39.13635474 53 47 C55.27358907 44.07292425 57.21095508 41.04658168 59.125 37.875 C62.84714044 31.98553728 67.19919877 27.02570363 72 22 C72.54011719 21.38511719 73.08023438 20.77023438 73.63671875 20.13671875 C86.11809518 6.46065138 107.64271604 -3.06452438 125.90576172 -4.17700195 C139.81901204 -4.4589514 152.76900793 -4.7023038 166 0 C167.05832031 0.37382812 168.11664063 0.74765625 169.20703125 1.1328125 C182.14271642 6.14767376 192.28362355 13.2970998 202 23 C203.22396484 24.2065625 203.22396484 24.2065625 204.47265625 25.4375 C220.01287874 41.64411282 227.63790913 64.10877157 227.4375 86.3125 C227.42722778 88.07799194 227.42722778 88.07799194 227.41674805 89.87915039 C227.24640855 99.15723009 226.11148508 107.24513511 223 116 C222.62617188 117.05832031 222.25234375 118.11664063 221.8671875 119.20703125 C215.0786368 136.71789548 204.00280955 148.97155622 190 161 C191.12535156 161.12955078 191.12535156 161.12955078 192.2734375 161.26171875 C204.51678749 162.9424809 213.18796199 167.2311004 221 177 C224.69303232 183.01109317 227.06910019 188.59320986 227.20532227 195.67675781 C227.22526749 196.59741028 227.24521271 197.51806274 227.26576233 198.46661377 C227.29083107 199.94493683 227.29083107 199.94493683 227.31640625 201.453125 C227.33718735 202.46848328 227.35796844 203.48384155 227.37937927 204.52996826 C227.44470597 207.76991073 227.50368137 211.00993348 227.5625 214.25 C227.60570126 216.44792493 227.64931607 218.64584178 227.69335938 220.84375 C227.80037007 226.22908206 227.90216773 231.6144938 228 237 C228.7331543 237.24089355 229.46630859 237.48178711 230.22167969 237.72998047 C235.58228744 239.56919594 240.06824939 241.16257197 244.25 245.125 C244.99765625 245.80820312 245.7453125 246.49140625 246.515625 247.1953125 C250.06091772 251.19770271 253.00665967 255.57641294 256 260 C257.07217773 259.27337158 258.14435547 258.54674316 259.24902344 257.7980957 C281.6842183 242.60044987 304.17819722 227.50174404 326.85375977 212.66455078 C335.87090013 206.75576857 344.82471755 200.77640462 353.67578125 194.62109375 C355.38154033 193.44153963 357.08742963 192.26217381 358.79345703 191.08300781 C361.97631555 188.88211251 365.13896412 186.65574891 368.29248047 184.41308594 C369.7190141 183.42410175 371.14622182 182.4360889 372.57421875 181.44921875 C373.50878654 180.76719643 373.50878654 180.76719643 374.4622345 180.07139587 C378.65682192 177.21774126 381.93852219 176.51375222 386.99934387 176.5506134 C389.56407674 177.1267027 390.36978314 177.95534336 392 180 C392.37604749 182.07474327 392.37604749 182.07474327 392.37752342 184.51498413 C392.38534666 185.4456904 392.39316991 186.37639668 392.40123022 187.33530617 C392.39453805 188.35951353 392.38784589 189.38372089 392.38095093 190.43896484 C392.38797089 192.0689721 392.38797089 192.0689721 392.39513266 193.7319088 C392.40714728 197.39170732 392.39760001 201.05113586 392.38818359 204.7109375 C392.39224641 207.32717102 392.39758665 209.94340282 392.40411377 212.55963135 C392.41747265 218.939085 392.41456382 225.31843292 392.40587585 231.69789076 C392.39910816 236.88134601 392.39817861 242.06477158 392.4014473 247.24822998 C392.401907 247.98520343 392.40236669 248.72217688 392.40284032 249.48148286 C392.40379947 250.97850308 392.40477211 252.47552328 392.4057581 253.97254348 C392.4143183 268.01907694 392.40446799 282.06555173 392.388357 296.11207557 C392.37495323 308.17175165 392.37728115 320.23134111 392.39111328 332.29101562 C392.40715799 346.28635142 392.41349427 360.28163574 392.40427649 374.27697945 C392.40332082 375.7685763 392.4023777 377.26017315 392.4014473 378.75177002 C392.40098447 379.48571625 392.40052164 380.21966248 392.40004479 380.97584951 C392.39745157 386.15470892 392.40183304 391.33353577 392.40888596 396.51239014 C392.41816508 403.47924547 392.41158446 410.44593403 392.39420319 417.41277313 C392.39022349 419.97547889 392.39139753 422.53819838 392.39799118 425.10089874 C392.40613813 428.58779986 392.39596783 432.07416836 392.38095093 435.56103516 C392.39098918 437.0973462 392.39098918 437.0973462 392.40123022 438.66469383 C392.39340697 439.5954001 392.38558373 440.52610638 392.37752342 441.48501587 C392.37703637 442.29029535 392.37654931 443.09557484 392.37604749 443.92525673 C391.90633591 446.51676702 391.05166955 447.39848554 389 449 C384.15780919 450.18953883 379.95334513 449.32659377 375.72924805 446.7980957 C374.22549961 445.77849168 372.73698129 444.73618313 371.26171875 443.67578125 C370.44005722 443.11120712 369.61839569 442.546633 368.77183533 441.96495056 C366.99538976 440.74093693 365.2254605 439.50742285 363.46148682 438.26550293 C359.66519094 435.59275159 355.8381705 432.96550833 352.01287842 430.33450317 C350.01385843 428.9587249 348.01652338 427.58049545 346.02081299 426.19992065 C336.56729971 419.66656212 326.98519717 413.33906632 317.37014771 407.04681396 C296.77577342 393.56693481 276.35373517 379.83987693 256 366 C255.53311768 366.67764404 255.06623535 367.35528809 254.58520508 368.0534668 C253.96540771 368.94718994 253.34561035 369.84091309 252.70703125 370.76171875 C252.09577393 371.64561279 251.4845166 372.52950684 250.85473633 373.44018555 C244.98389913 381.54282185 237.82106565 386.66466826 228 389 C227.99635437 389.55186478 227.99270874 390.10372955 227.98895264 390.6723175 C227.94683742 396.46498323 227.87729334 402.25687785 227.79248047 408.04907227 C227.76441754 410.20491793 227.74313072 412.36086368 227.72900391 414.5168457 C227.70737006 417.63284001 227.66061643 420.74764934 227.609375 423.86328125 C227.60814636 424.81270096 227.60691772 425.76212067 227.60565186 426.74031067 C227.37229645 437.62929586 223.9925382 445.96234561 216.43359375 453.76953125 C206.97081002 462.44248391 198.80194182 464.30284699 186.26068115 464.26742554 C185.08231477 464.27195665 183.90394839 464.27648776 182.68987393 464.28115618 C179.43182869 464.2916036 176.17392275 464.29312992 172.91586614 464.29076743 C169.39698418 464.29035836 165.87813484 464.301407 162.35926819 464.31088257 C155.46970025 464.32747432 148.58016653 464.3329913 141.69058028 464.33410732 C136.08824293 464.3350587 130.48591685 464.33917349 124.88358307 464.34550858 C108.98811097 464.36311633 93.09266585 464.37234822 77.19718394 464.37084763 C76.34079 464.37076772 75.48439605 464.3706878 74.60205078 464.37060547 C73.31588517 464.37048283 73.31588517 464.37048283 72.00373641 464.37035771 C58.11176741 464.36954503 44.2199069 464.38867923 30.32796928 464.4168822 C16.05224017 464.44563484 1.77656393 464.45942117 -12.49919486 464.45769465 C-20.50927803 464.45703155 -28.51924747 464.46248865 -36.5293045 464.48405075 C-43.34996909 464.50229395 -50.17046842 464.50658425 -56.99114689 464.4930319 C-60.46803149 464.48651786 -63.94459933 464.48632775 -67.42145348 464.5037384 C-71.19883249 464.51920159 -74.97538503 464.50987404 -78.75274658 464.49447632 C-80.38424853 464.50990701 -80.38424853 464.50990701 -82.04871011 464.52564943 C-93.2837144 464.42476453 -101.69306495 461.25325667 -109.76953125 453.43359375 C-117.86769814 444.59794056 -120.30697127 436.73493335 -120.26742554 424.96905518 C-120.27195665 423.97444865 -120.27648776 422.97984212 -120.28115618 421.95509601 C-120.29379154 418.63049821 -120.29218035 415.30606442 -120.29052734 411.98144531 C-120.29651314 409.59434804 -120.30331881 407.20725271 -120.31088257 404.82015991 C-120.32671112 399.01344365 -120.33299076 393.20677694 -120.33410732 387.40004018 C-120.33505929 382.67727872 -120.33917697 377.95453061 -120.34550858 373.23177338 C-120.36311328 359.826489 -120.37234873 346.42123659 -120.37084763 333.01594058 C-120.37076772 332.29396144 -120.3706878 331.5719823 -120.37060547 330.828125 C-120.37052371 330.10525892 -120.37044195 329.38239284 -120.37035771 328.63762173 C-120.36954517 316.92809671 -120.38867673 305.21870044 -120.4168822 293.50921264 C-120.44564967 281.47090665 -120.45942036 269.43266337 -120.45769465 257.39432216 C-120.45703205 250.64178576 -120.46246704 243.8893843 -120.48405075 237.13687897 C-120.50344449 230.78385553 -120.50354947 224.43111663 -120.48901749 218.07808304 C-120.4869297 215.75093545 -120.49162842 213.42377 -120.5037384 211.09665298 C-120.51924075 207.91039675 -120.5098491 204.72511557 -120.49447632 201.53887939 C-120.50476344 200.6263041 -120.51505057 199.71372881 -120.52564943 198.77349973 C-120.41252972 188.10384807 -116.80717949 179.84620838 -109.43359375 172.23046875 C-102.57083598 165.94052543 -96.08322149 162.57970786 -86.78515625 161.45703125 C-85.53605469 161.30621094 -84.28695312 161.15539062 -83 161 C-84.14275391 159.98292969 -84.14275391 159.98292969 -85.30859375 158.9453125 C-98.76712464 146.86809797 -108.8845468 134.74928726 -115.375 117.75 C-115.61371826 117.12528809 -115.85243652 116.50057617 -116.09838867 115.85693359 C-124.0199543 93.88282569 -121.88634047 68.22990642 -112.3125 47.1875 C-101.58636267 25.08174218 -82.92382766 8.59970274 -60 0 C-41.15639761 -6.48316867 -18.79791262 -6.68079125 0 0 Z M53 124 C52.5875 124.82242188 52.175 125.64484375 51.75 126.4921875 C44.73899578 140.04470905 35.26125716 152.97344962 22 161 C22 161.33 22 161.66 22 162 C42.79 162 63.58 162 85 162 C82.42106169 159.42106169 79.94192098 157.03801404 77.1875 154.6875 C75.79002643 153.46019849 74.39415737 152.23106726 73 151 C72.41992188 150.49984375 71.83984375 149.9996875 71.2421875 149.484375 C63.74117004 142.57646124 58.38031504 133.107174 54 124 C53.67 124 53.34 124 53 124 Z " fill="#000000" transform="translate(120,26)"/>
<path d="M0 0 C1.4862339 -0.00967334 1.4862339 -0.00967334 3.00249273 -0.0195421 C4.62416853 -0.01489629 4.62416853 -0.01489629 6.27860546 -0.01015663 C7.43287838 -0.01468774 8.58715129 -0.01921886 9.77640218 -0.02388728 C12.9763491 -0.03435664 16.17615468 -0.03585726 19.3761133 -0.03349853 C22.82885146 -0.03309027 26.28155613 -0.0441304 29.73427868 -0.05361366 C36.49744936 -0.07022276 43.26058517 -0.07572317 50.02377454 -0.07683842 C55.52178055 -0.07778896 61.01977507 -0.08189954 66.51777744 -0.08823967 C82.10823777 -0.105852 97.69867057 -0.11507858 113.28914092 -0.11357872 C114.12953186 -0.11349881 114.96992281 -0.1134189 115.83578014 -0.11333656 C116.67719813 -0.1132548 117.51861612 -0.11317304 118.38553163 -0.1130888 C132.02099427 -0.11227595 145.65634643 -0.13141336 159.29177711 -0.1596133 C173.29509558 -0.18834537 187.29836018 -0.20215341 201.30170888 -0.20042574 C209.16249709 -0.19976194 217.0231695 -0.20524983 224.88393116 -0.22678185 C231.57700464 -0.24499795 238.26990981 -0.24933755 244.96299735 -0.235763 C248.37671522 -0.22923535 251.79011024 -0.22910826 255.20379734 -0.2464695 C258.9078961 -0.2618792 262.61114638 -0.25264063 266.31522655 -0.23720741 C267.38965159 -0.24749454 268.46407663 -0.25778167 269.57106 -0.26838052 C277.08348265 -0.19919063 282.51945664 1.21829465 288.22957897 6.22211266 C288.7684071 6.87308922 289.30723522 7.52406578 289.86239147 8.19476891 C290.41668835 8.84316734 290.97098522 9.49156578 291.54207897 10.15961266 C294.32121203 14.19311117 295.2360946 17.7621602 295.24276257 22.62665367 C295.24972149 23.6744651 295.25668041 24.72227654 295.26385021 25.80183983 C295.2628532 26.92279549 295.26185619 28.04375114 295.26082897 29.19867516 C295.28110924 31.57953931 295.30195985 33.96039865 295.32332897 36.34125328 C295.34597602 40.08958566 295.36241941 43.83772854 295.36825085 47.58612633 C295.3777472 51.20732271 295.41148091 54.82766848 295.44832897 58.44867516 C295.44076077 60.13314499 295.44076077 60.13314499 295.43303967 61.85164452 C295.44630291 62.89630379 295.45956615 63.94096306 295.47323132 65.01727867 C295.47608135 65.93485451 295.47893139 66.85243034 295.48186779 67.79781151 C296.14365378 71.01751121 297.46922123 72.2129604 299.98739147 74.25726891 C302.3492187 75.04768421 302.3492187 75.04768421 304.86239147 75.31976891 C313.28009653 76.78639687 318.06399291 80.32898124 322.98739147 87.25726891 C325.23302692 91.65356324 325.28352406 95.83602974 325.27791882 100.66840172 C325.28463604 101.50323586 325.29135326 102.33806999 325.29827404 103.19820213 C325.31723803 105.95232699 325.32117772 108.70620785 325.32332897 111.46039391 C325.32975906 113.38224957 325.33648758 115.30410425 325.34350109 117.22595787 C325.35547061 121.25415883 325.35918235 125.28227407 325.35799694 129.31049156 C325.35779401 134.45621371 325.38507054 139.60138196 325.41954136 144.74697304 C325.44185177 148.71741795 325.44583318 152.68773057 325.44477749 156.65823174 C325.44712819 158.55433367 325.45592166 160.45043955 325.47144222 162.34647942 C325.49118201 165.00755877 325.48523281 167.66745693 325.47323132 170.32855797 C325.48447033 171.10185951 325.49570934 171.87516106 325.50728893 172.67189598 C325.42980056 179.48115143 323.37326253 185.43177478 318.95223522 190.66742516 C318.28321178 191.21269859 317.61418835 191.75797203 316.92489147 192.31976891 C316.25328991 192.88824547 315.58168835 193.45672203 314.88973522 194.04242516 C312.98739147 195.25726891 312.98739147 195.25726891 309.98739147 195.25726891 C309.98374584 194.01334373 309.98010021 192.76941856 309.97634411 191.48779869 C309.93943055 179.77483586 309.88169769 168.06213682 309.80348873 156.34937477 C309.76395051 150.32745065 309.7317931 144.30567416 309.71639538 138.28363609 C309.70127071 132.47388826 309.6668995 126.66454611 309.61908245 120.85497856 C309.6042254 118.63661535 309.59634799 116.41819422 309.59550762 114.19978142 C309.59314926 111.09643166 309.56616015 107.9942134 309.53328991 104.89105797 C309.53832027 103.97036522 309.54335064 103.04967247 309.54853344 102.10107994 C309.47714671 97.05320778 309.47714671 97.05320778 307.17983532 92.65125084 C304.9104244 90.92559406 304.9104244 90.92559406 301.36239147 91.31976891 C297.73222223 91.93235341 297.73222223 91.93235341 295.98739147 95.25726891 C295.68535959 98.1939923 295.68535959 98.1939923 295.73583508 101.5937252 C295.73286494 102.23922321 295.7298948 102.88472122 295.72683465 103.54977977 C295.71918472 105.71685161 295.72569274 107.88365319 295.73202038 110.05072594 C295.72927083 111.6030502 295.72559115 113.15537305 295.72104931 114.7076931 C295.71293028 118.05365587 295.71077067 121.39955179 295.71299648 124.74552345 C295.71582805 130.04106929 295.70148195 135.33648152 295.68401623 140.63199425 C295.63697903 155.69163555 295.61305924 170.75126837 295.6065321 185.81097984 C295.602776 194.12613949 295.58469948 202.44114849 295.55143774 210.75624359 C295.53126197 216.01495857 295.52883518 221.27328398 295.53971791 226.53202176 C295.54233409 229.8135589 295.52827625 233.09487165 295.50963688 236.3763504 C295.50433588 237.89159322 295.50577573 239.40687791 295.51467228 240.92210388 C295.56486499 250.22566239 295.23097765 258.20377363 289.02254772 265.59711266 C288.37157116 266.12433922 287.7205946 266.65156578 287.04989147 267.19476891 C286.40149303 267.74004234 285.7530946 268.28531578 285.08504772 268.84711266 C281.16810237 271.48029193 277.67361735 272.50678113 272.97478294 272.51453781 C271.48854904 272.52421115 271.48854904 272.52421115 269.97229022 272.53407991 C268.89117302 272.53098271 267.81005581 272.5278855 266.69617748 272.52469444 C265.54190457 272.52922556 264.38763165 272.53375667 263.19838077 272.53842509 C259.99843384 272.54889445 256.79862826 272.55039507 253.59866965 272.54803634 C250.14593149 272.54762808 246.69322681 272.55866821 243.24050426 272.56815147 C236.47733359 272.58476057 229.71419777 272.59026098 222.9510084 272.59137623 C217.45300239 272.59232677 211.95500788 272.59643735 206.4570055 272.60277748 C190.86654517 272.62038981 175.27611237 272.62961639 159.68564203 272.62811653 C158.84525108 272.62803662 158.00486014 272.62795671 157.1390028 272.62787437 C156.29758481 272.62779261 155.45616682 272.62771085 154.58925132 272.62762661 C140.95378868 272.62681376 127.31843652 272.64595117 113.68300583 272.67415111 C99.67968736 272.70288318 85.67642276 272.71669122 71.67307407 272.71496356 C63.81228585 272.71429975 55.95161344 272.71978764 48.09085178 272.74131966 C41.39777831 272.75953576 34.70487313 272.76387536 28.01178559 272.75030081 C24.59806772 272.74377316 21.18467271 272.74364607 17.7709856 272.76100731 C14.06688684 272.77641701 10.36363657 272.76717845 6.65955639 272.75174522 C5.58513135 272.76203235 4.51070631 272.77231948 3.40372294 272.78291833 C-4.14426728 272.71340087 -9.38854454 271.37623687 -15.25479603 266.32758141 C-15.79362415 265.68562828 -16.33245228 265.04367516 -16.88760853 264.38226891 C-17.4419054 263.74547203 -17.99620228 263.10867516 -18.56729603 262.45258141 C-22.29472981 256.79091171 -22.3025403 251.12644331 -22.28003407 244.59213829 C-22.28456518 243.62485436 -22.28909629 242.65757043 -22.29376471 241.66097486 C-22.30641488 238.42300464 -22.30478793 235.18520249 -22.30313587 231.94721031 C-22.30912068 229.62435757 -22.31592612 227.30150681 -22.3234911 224.97865868 C-22.34116197 218.67081612 -22.34584691 212.36302782 -22.34712267 206.05516291 C-22.34902199 200.78919952 -22.35637982 195.52324877 -22.36346686 190.25729024 C-22.37910589 178.54329479 -22.38480441 166.82932285 -22.38345616 155.1153179 C-22.38337624 154.41289415 -22.38329633 153.71047041 -22.383214 152.98676109 C-22.38313224 152.28347688 -22.38305047 151.58019268 -22.38296624 150.85559683 C-22.38215331 139.45760661 -22.40129436 128.05974853 -22.42949073 116.66179653 C-22.45823398 104.95011001 -22.47203027 93.23848791 -22.47030318 81.52676523 C-22.46979316 74.95483381 -22.47549855 68.38305198 -22.49665928 61.8111515 C-22.516017 55.63051093 -22.51618273 49.45016305 -22.50162601 43.26951218 C-22.49953386 41.00238238 -22.50426294 38.73523439 -22.51634693 36.46813583 C-22.53178708 33.37053533 -22.52249872 30.27394561 -22.50708485 27.17636681 C-22.51737197 26.28160751 -22.5276591 25.38684821 -22.53825796 24.464975 C-22.46200188 17.51893868 -20.65678696 12.27468127 -16.04776478 7.01508141 C-15.39678822 6.47625328 -14.74581165 5.93742516 -14.07510853 5.38226891 C-13.42671009 4.82797203 -12.77831165 4.27367516 -12.11026478 3.70258141 C-8.21369168 1.01779175 -4.70601561 0.00776854 0 0 Z " fill="#48CAFF" transform="translate(37.01260852813721,202.74273109436035)"/>
<path d="M0 0 C1.4862339 -0.00967334 1.4862339 -0.00967334 3.00249273 -0.0195421 C4.62416853 -0.01489629 4.62416853 -0.01489629 6.27860546 -0.01015663 C7.43287838 -0.01468774 8.58715129 -0.01921886 9.77640218 -0.02388728 C12.9763491 -0.03435664 16.17615468 -0.03585726 19.3761133 -0.03349853 C22.82885146 -0.03309027 26.28155613 -0.0441304 29.73427868 -0.05361366 C36.49744936 -0.07022276 43.26058517 -0.07572317 50.02377454 -0.07683842 C55.52178055 -0.07778896 61.01977507 -0.08189954 66.51777744 -0.08823967 C82.10823777 -0.105852 97.69867057 -0.11507858 113.28914092 -0.11357872 C114.12953186 -0.11349881 114.96992281 -0.1134189 115.83578014 -0.11333656 C116.67719813 -0.1132548 117.51861612 -0.11317304 118.38553163 -0.1130888 C132.02099427 -0.11227595 145.65634643 -0.13141336 159.29177711 -0.1596133 C173.29509558 -0.18834537 187.29836018 -0.20215341 201.30170888 -0.20042574 C209.16249709 -0.19976194 217.0231695 -0.20524983 224.88393116 -0.22678185 C231.57700464 -0.24499795 238.26990981 -0.24933755 244.96299735 -0.235763 C248.37671522 -0.22923535 251.79011024 -0.22910826 255.20379734 -0.2464695 C258.9078961 -0.2618792 262.61114638 -0.25264063 266.31522655 -0.23720741 C267.38965159 -0.24749454 268.46407663 -0.25778167 269.57106 -0.26838052 C277.08348265 -0.19919063 282.51945664 1.21829465 288.22957897 6.22211266 C288.7684071 6.87308922 289.30723522 7.52406578 289.86239147 8.19476891 C290.41668835 8.84316734 290.97098522 9.49156578 291.54207897 10.15961266 C294.32121203 14.19311117 295.2360946 17.7621602 295.24276257 22.62665367 C295.24972149 23.6744651 295.25668041 24.72227654 295.26385021 25.80183983 C295.2628532 26.92279549 295.26185619 28.04375114 295.26082897 29.19867516 C295.28110924 31.57953931 295.30195985 33.96039865 295.32332897 36.34125328 C295.34597602 40.08958566 295.36241941 43.83772854 295.36825085 47.58612633 C295.3777472 51.20732271 295.41148091 54.82766848 295.44832897 58.44867516 C295.44076077 60.13314499 295.44076077 60.13314499 295.43303967 61.85164452 C295.44630291 62.89630379 295.45956615 63.94096306 295.47323132 65.01727867 C295.47608135 65.93485451 295.47893139 66.85243034 295.48186779 67.79781151 C296.14365378 71.01751121 297.46922123 72.2129604 299.98739147 74.25726891 C302.3492187 75.04768421 302.3492187 75.04768421 304.86239147 75.31976891 C313.28009653 76.78639687 318.06399291 80.32898124 322.98739147 87.25726891 C325.23302692 91.65356324 325.28352406 95.83602974 325.27791882 100.66840172 C325.28463604 101.50323586 325.29135326 102.33806999 325.29827404 103.19820213 C325.31723803 105.95232699 325.32117772 108.70620785 325.32332897 111.46039391 C325.32975906 113.38224957 325.33648758 115.30410425 325.34350109 117.22595787 C325.35547061 121.25415883 325.35918235 125.28227407 325.35799694 129.31049156 C325.35779401 134.45621371 325.38507054 139.60138196 325.41954136 144.74697304 C325.44185177 148.71741795 325.44583318 152.68773057 325.44477749 156.65823174 C325.44712819 158.55433367 325.45592166 160.45043955 325.47144222 162.34647942 C325.49118201 165.00755877 325.48523281 167.66745693 325.47323132 170.32855797 C325.48447033 171.10185951 325.49570934 171.87516106 325.50728893 172.67189598 C325.42980056 179.48115143 323.37326253 185.43177478 318.95223522 190.66742516 C318.28321178 191.21269859 317.61418835 191.75797203 316.92489147 192.31976891 C316.25328991 192.88824547 315.58168835 193.45672203 314.88973522 194.04242516 C312.98739147 195.25726891 312.98739147 195.25726891 309.98739147 195.25726891 C309.98374584 194.01334373 309.98010021 192.76941856 309.97634411 191.48779869 C309.93943055 179.77483586 309.88169769 168.06213682 309.80348873 156.34937477 C309.76395051 150.32745065 309.7317931 144.30567416 309.71639538 138.28363609 C309.70127071 132.47388826 309.6668995 126.66454611 309.61908245 120.85497856 C309.6042254 118.63661535 309.59634799 116.41819422 309.59550762 114.19978142 C309.59314926 111.09643166 309.56616015 107.9942134 309.53328991 104.89105797 C309.53832027 103.97036522 309.54335064 103.04967247 309.54853344 102.10107994 C309.47714671 97.05320778 309.47714671 97.05320778 307.17983532 92.65125084 C304.9104244 90.92559406 304.9104244 90.92559406 301.36239147 91.31976891 C297.73222223 91.93235341 297.73222223 91.93235341 295.98739147 95.25726891 C295.68535959 98.1939923 295.68535959 98.1939923 295.73583508 101.5937252 C295.73286494 102.23922321 295.7298948 102.88472122 295.72683465 103.54977977 C295.71918472 105.71685161 295.72569274 107.88365319 295.73202038 110.05072594 C295.72927083 111.6030502 295.72559115 113.15537305 295.72104931 114.7076931 C295.71293028 118.05365587 295.71077067 121.39955179 295.71299648 124.74552345 C295.71582805 130.04106929 295.70148195 135.33648152 295.68401623 140.63199425 C295.63697903 155.69163555 295.61305924 170.75126837 295.6065321 185.81097984 C295.602776 194.12613949 295.58469948 202.44114849 295.55143774 210.75624359 C295.53126197 216.01495857 295.52883518 221.27328398 295.53971791 226.53202176 C295.54233409 229.8135589 295.52827625 233.09487165 295.50963688 236.3763504 C295.50433588 237.89159322 295.50577573 239.40687791 295.51467228 240.92210388 C295.56486499 250.22566239 295.23097765 258.20377363 289.02254772 265.59711266 C288.37157116 266.12433922 287.7205946 266.65156578 287.04989147 267.19476891 C286.40149303 267.74004234 285.7530946 268.28531578 285.08504772 268.84711266 C281.16810237 271.48029193 277.67361735 272.50678113 272.97478294 272.51453781 C271.48854904 272.52421115 271.48854904 272.52421115 269.97229022 272.53407991 C268.89117302 272.53098271 267.81005581 272.5278855 266.69617748 272.52469444 C265.54190457 272.52922556 264.38763165 272.53375667 263.19838077 272.53842509 C259.99843384 272.54889445 256.79862826 272.55039507 253.59866965 272.54803634 C250.14593149 272.54762808 246.69322681 272.55866821 243.24050426 272.56815147 C236.47733359 272.58476057 229.71419777 272.59026098 222.9510084 272.59137623 C217.45300239 272.59232677 211.95500788 272.59643735 206.4570055 272.60277748 C190.86654517 272.62038981 175.27611237 272.62961639 159.68564203 272.62811653 C158.84525108 272.62803662 158.00486014 272.62795671 157.1390028 272.62787437 C156.29758481 272.62779261 155.45616682 272.62771085 154.58925132 272.62762661 C140.95378868 272.62681376 127.31843652 272.64595117 113.68300583 272.67415111 C99.67968736 272.70288318 85.67642276 272.71669122 71.67307407 272.71496356 C63.81228585 272.71429975 55.95161344 272.71978764 48.09085178 272.74131966 C41.39777831 272.75953576 34.70487313 272.76387536 28.01178559 272.75030081 C24.59806772 272.74377316 21.18467271 272.74364607 17.7709856 272.76100731 C14.06688684 272.77641701 10.36363657 272.76717845 6.65955639 272.75174522 C5.58513135 272.76203235 4.51070631 272.77231948 3.40372294 272.78291833 C-4.14426728 272.71340087 -9.38854454 271.37623687 -15.25479603 266.32758141 C-15.79362415 265.68562828 -16.33245228 265.04367516 -16.88760853 264.38226891 C-17.4419054 263.74547203 -17.99620228 263.10867516 -18.56729603 262.45258141 C-22.29472981 256.79091171 -22.3025403 251.12644331 -22.28003407 244.59213829 C-22.28456518 243.62485436 -22.28909629 242.65757043 -22.29376471 241.66097486 C-22.30641488 238.42300464 -22.30478793 235.18520249 -22.30313587 231.94721031 C-22.30912068 229.62435757 -22.31592612 227.30150681 -22.3234911 224.97865868 C-22.34116197 218.67081612 -22.34584691 212.36302782 -22.34712267 206.05516291 C-22.34902199 200.78919952 -22.35637982 195.52324877 -22.36346686 190.25729024 C-22.37910589 178.54329479 -22.38480441 166.82932285 -22.38345616 155.1153179 C-22.38337624 154.41289415 -22.38329633 153.71047041 -22.383214 152.98676109 C-22.38313224 152.28347688 -22.38305047 151.58019268 -22.38296624 150.85559683 C-22.38215331 139.45760661 -22.40129436 128.05974853 -22.42949073 116.66179653 C-22.45823398 104.95011001 -22.47203027 93.23848791 -22.47030318 81.52676523 C-22.46979316 74.95483381 -22.47549855 68.38305198 -22.49665928 61.8111515 C-22.516017 55.63051093 -22.51618273 49.45016305 -22.50162601 43.26951218 C-22.49953386 41.00238238 -22.50426294 38.73523439 -22.51634693 36.46813583 C-22.53178708 33.37053533 -22.52249872 30.27394561 -22.50708485 27.17636681 C-22.51737197 26.28160751 -22.5276591 25.38684821 -22.53825796 24.464975 C-22.46200188 17.51893868 -20.65678696 12.27468127 -16.04776478 7.01508141 C-15.39678822 6.47625328 -14.74581165 5.93742516 -14.07510853 5.38226891 C-13.42671009 4.82797203 -12.77831165 4.27367516 -12.11026478 3.70258141 C-8.21369168 1.01779175 -4.70601561 0.00776854 0 0 Z M-5.16565228 17.35336304 C-7.45651889 20.95521392 -7.64114233 23.09660651 -7.64752674 27.35468102 C-7.65532669 28.05779632 -7.66312665 28.76091162 -7.67116296 29.48533344 C-7.69106828 31.83563007 -7.67532606 34.18430473 -7.65958118 36.53461266 C-7.66635803 38.22180691 -7.67526154 39.90899376 -7.68613148 41.59616661 C-7.70892367 46.17475714 -7.70008892 50.75278429 -7.68423605 55.33138466 C-7.67157662 60.12301972 -7.68331728 64.91460656 -7.69116688 69.70624352 C-7.70026331 77.75296247 -7.68827569 85.79945197 -7.664464 93.84613609 C-7.63725271 103.14907374 -7.64606688 112.45146349 -7.67359602 121.75438786 C-7.69628626 129.74180955 -7.6994876 137.72906631 -7.68640268 145.71650982 C-7.67860769 150.4870133 -7.67756787 155.25725926 -7.69408512 160.0277462 C-7.70852941 164.51280805 -7.69850923 168.99716358 -7.66961384 173.48214912 C-7.66300276 175.12807479 -7.66490115 176.77405991 -7.67592716 178.41996193 C-7.68959474 180.66739569 -7.67245687 182.91256721 -7.64752674 185.1598568 C-7.64564161 186.41714088 -7.64375648 187.67442497 -7.64181423 188.96980858 C-7.20416972 192.34991303 -7.20416972 192.34991303 -5.16565228 195.16117477 C-0.49853168 198.2638035 3.57832357 197.94999259 9.07100964 197.89218712 C10.76884208 197.90388705 10.76884208 197.90388705 12.50097418 197.91582334 C16.30211408 197.935802 20.10225937 197.91995449 23.9034071 197.90424156 C26.62508243 197.90826396 29.34671524 197.9197354 32.06836987 197.93079185 C38.69826996 197.95303238 45.32788715 197.9482196 51.95779836 197.93372865 C57.34572286 197.92243954 62.73356804 197.92090407 68.12150097 197.92634773 C69.27148197 197.92749698 69.27148197 197.92749698 70.44469491 197.92866945 C72.0021076 197.93026806 73.55952028 197.93188913 75.11693293 197.9335324 C89.72296942 197.94779228 104.32884905 197.93139349 118.93485981 197.90453057 C131.46921325 197.88219153 144.00333518 197.88607159 156.53768444 197.90912437 C171.09121911 197.93587822 185.64461627 197.94641896 200.19817209 197.93106306 C201.74987537 197.9294703 203.30157866 197.92789845 204.85328197 197.92634773 C205.61676202 197.92557635 206.38024206 197.92480498 207.16685787 197.92401022 C212.54870443 197.91969196 217.93046381 197.92698246 223.31229687 197.9387455 C229.87047001 197.95276448 236.42834391 197.94898357 242.98648274 197.92234178 C246.33316117 197.9091946 249.67892703 197.90675302 253.02566624 197.92058754 C256.65220376 197.93419916 260.27732656 197.91717732 263.90377331 197.89218712 C265.49350012 197.90891753 265.49350012 197.90891753 267.11534262 197.92598593 C271.71756966 197.86423564 274.24199134 197.75279924 278.14043522 195.16117477 C280.43130183 191.55932389 280.61592528 189.4179313 280.62230968 185.1598568 C280.63010964 184.4567415 280.63790959 183.75362619 280.64594591 183.02920437 C280.66585122 180.67890774 280.65010901 178.33023308 280.63436413 175.97992516 C280.64114097 174.2927309 280.65004448 172.60554405 280.66091442 170.9183712 C280.68370662 166.33978067 280.67487186 161.76175352 280.65901899 157.18315315 C280.64635956 152.39151809 280.65810023 147.59993125 280.66594982 142.8082943 C280.67504626 134.76157534 280.66305863 126.71508584 280.63924694 118.66840172 C280.61203565 109.36546407 280.62084982 100.06307432 280.64837897 90.76014996 C280.6710692 82.77272826 280.67427054 74.7854715 280.66118562 66.79802799 C280.65339063 62.02752451 280.65235081 57.25727855 280.66886806 52.48679161 C280.68331236 48.00172976 280.67329218 43.51737423 280.64439678 39.03238869 C280.6377857 37.38646302 280.63968409 35.7404779 280.65071011 34.09457588 C280.66437768 31.84714212 280.64723981 29.6019706 280.62230968 27.35468102 C280.61948199 25.46875488 280.61948199 25.46875488 280.61659718 23.54472923 C280.17895266 20.16462478 280.17895266 20.16462478 278.14043522 17.35336304 C273.47331462 14.25073431 269.39645938 14.56454522 263.90377331 14.62235069 C262.20594086 14.61065076 262.20594086 14.61065076 260.47380877 14.59871447 C256.67266886 14.57873581 252.87252357 14.59458332 249.07137585 14.61029625 C246.34970051 14.60627385 243.6280677 14.59480241 240.90641308 14.58374596 C234.27651298 14.56150543 227.6468958 14.56631821 221.01698458 14.58080916 C215.62906008 14.59209827 210.24121491 14.59363375 204.85328197 14.58819008 C204.08662798 14.58742391 203.31997398 14.58665775 202.53008804 14.58586837 C200.97267534 14.58426975 199.41526267 14.58264868 197.85785002 14.58100541 C183.25181352 14.56674553 168.6459339 14.58314432 154.03992313 14.61000724 C141.50556969 14.63234628 128.97144777 14.62846622 116.4370985 14.60541344 C101.88356383 14.57865959 87.33016668 14.56811885 72.77661085 14.58347476 C71.22490758 14.58506751 69.67320428 14.58663936 68.12150097 14.58819008 C67.35802092 14.58896146 66.59454088 14.58973283 65.80792508 14.59052759 C60.42607852 14.59484585 55.04431913 14.58755535 49.66248608 14.57579231 C43.10431293 14.56177334 36.54643903 14.56555425 29.9883002 14.59219603 C26.64162178 14.60534321 23.29585592 14.6077848 19.94911671 14.59395027 C16.32257918 14.58033865 12.69745638 14.59736049 9.07100964 14.62235069 C7.48128283 14.60562028 7.48128283 14.60562028 5.85944033 14.58855188 C1.25721329 14.65030217 -1.2672084 14.76173857 -5.16565228 17.35336304 Z " fill="#BCF1FE" transform="translate(37.01260852813721,202.74273109436035)"/>
<path d="M0 0 C1.1318883 -0.00779995 2.2637766 -0.01559991 3.42996454 -0.02363622 C7.23110444 -0.04361488 11.03124973 -0.02776737 14.83239746 -0.01205444 C17.5540728 -0.01607684 20.27570561 -0.02754829 22.99736023 -0.03860474 C29.62726033 -0.06084526 36.25687751 -0.05603248 42.88678873 -0.04154153 C48.27471323 -0.03025243 53.6625584 -0.02871695 59.05049133 -0.03416061 C59.81714533 -0.03492678 60.58379933 -0.03569294 61.37368527 -0.03648233 C62.93109797 -0.03808094 64.48851064 -0.03970201 66.04592329 -0.04134528 C80.65195979 -0.05560516 95.25783941 -0.03920637 109.86385018 -0.01234345 C122.39820362 0.00999559 134.93232554 0.00611553 147.4666748 -0.01693726 C162.02020947 -0.0436911 176.57360663 -0.05423184 191.12716246 -0.03887594 C192.67886573 -0.03728318 194.23056902 -0.03571133 195.78227234 -0.03416061 C196.54575238 -0.03338924 197.30923243 -0.03261786 198.09584823 -0.03182311 C203.47769479 -0.02750484 208.85945417 -0.03479534 214.24128723 -0.04655838 C220.79946037 -0.06057736 227.35733427 -0.05679645 233.9154731 -0.03015466 C237.26215153 -0.01700748 240.60791739 -0.0145659 243.9546566 -0.02840042 C247.58119412 -0.04201205 251.20631693 -0.0249902 254.83276367 0 C255.89258154 -0.01115361 256.95239942 -0.02230722 258.04433298 -0.03379881 C262.64656002 0.02795148 265.17098171 0.13938787 269.06942558 2.73101234 C271.3602922 6.33286323 271.54491564 8.47425582 271.55130005 12.73233032 C271.5591 13.43544562 271.56689996 14.13856092 271.57493627 14.86298275 C271.59484159 17.21327938 271.57909937 19.56195404 271.56335449 21.91226196 C271.57013134 23.59945622 271.57903485 25.28664307 271.58990479 26.97381592 C271.61269698 31.55240645 271.60386223 36.1304336 271.58800936 40.70903397 C271.57534992 45.50066902 271.58709059 50.29225587 271.59494019 55.08389282 C271.60403662 63.13061178 271.59204899 71.17710128 271.5682373 79.2237854 C271.54102602 88.52672304 271.54984019 97.8291128 271.57736933 107.13203716 C271.60005957 115.11945886 271.60326091 123.10671562 271.59017599 131.09415913 C271.582381 135.86466261 271.58134117 140.63490857 271.59785843 145.40539551 C271.61230272 149.89045736 271.60228254 154.37481289 271.57338715 158.85979843 C271.56677606 160.5057241 271.56867446 162.15170922 271.57970047 163.79761124 C271.59336805 166.045045 271.57623018 168.29021652 271.55130005 170.5375061 C271.54941492 171.79479019 271.54752979 173.05207428 271.54558754 174.34745789 C270.91638184 177.63491821 270.91638184 177.63491821 269.06942558 180.53882408 C264.40230499 183.6414528 260.32544974 183.3276419 254.83276367 183.26983643 C253.70087537 183.27763638 252.56898707 183.28543633 251.40279913 183.29347265 C247.60165923 183.3134513 243.80151394 183.2976038 240.00036621 183.28189087 C237.27869087 183.28591327 234.55705807 183.29738471 231.83540344 183.30844116 C225.20550334 183.33068169 218.57588616 183.32586891 211.94597495 183.31137796 C206.55805045 183.30008885 201.17020527 183.29855337 195.78227234 183.30399704 C194.63229134 183.30514629 194.63229134 183.30514629 193.4590784 183.30631875 C191.9016657 183.30791737 190.34425303 183.30953844 188.78684038 183.31118171 C174.18080389 183.32544159 159.57492426 183.3090428 144.9689135 183.28217988 C132.43456005 183.25984084 119.90043813 183.2637209 107.36608887 183.28677368 C92.8125542 183.31352753 78.25915704 183.32406827 63.70560122 183.30871236 C62.15389794 183.30711961 60.60219465 183.30554775 59.05049133 183.30399704 C58.28701129 183.30322566 57.52353124 183.30245428 56.73691544 183.30165953 C51.35506888 183.29734127 45.9733095 183.30463177 40.59147644 183.31639481 C34.0333033 183.33041378 27.4754294 183.32663287 20.91729057 183.29999109 C17.57061214 183.28684391 14.22484628 183.28440232 10.87810707 183.29823685 C7.25156955 183.31184847 3.62644674 183.29482663 0 183.26983643 C-1.05981787 183.28099003 -2.11963574 183.29214364 -3.21156931 183.30363524 C-7.81379635 183.24188495 -10.33821803 183.13044855 -14.23666191 180.53882408 C-16.52752853 176.9369732 -16.71215197 174.79558061 -16.71853638 170.5375061 C-16.73023631 169.48283315 -16.73023631 169.48283315 -16.7421726 168.40685368 C-16.76207792 166.05655705 -16.7463357 163.70788238 -16.73059082 161.35757446 C-16.73736766 159.67038021 -16.74627117 157.98319336 -16.75714111 156.29602051 C-16.77993331 151.71742998 -16.77109856 147.13940283 -16.75524569 142.56080246 C-16.74258625 137.7691674 -16.75432692 132.97758056 -16.76217651 128.1859436 C-16.77127295 120.13922465 -16.75928532 112.09273515 -16.73547363 104.04605103 C-16.70826235 94.74311338 -16.71707651 85.44072363 -16.74460566 76.13779926 C-16.7672959 68.15037757 -16.77049724 60.16312081 -16.75741231 52.1756773 C-16.74961733 47.40517381 -16.7485775 42.63492786 -16.76509476 37.86444092 C-16.77953905 33.37937907 -16.76951887 28.89502354 -16.74062347 24.41003799 C-16.73401239 22.76411232 -16.73591078 21.1181272 -16.7469368 19.47222519 C-16.76060438 17.22479143 -16.7434665 14.97961991 -16.71853638 12.73233032 C-16.71665125 11.47504623 -16.71476612 10.21776215 -16.71282387 8.92237854 C-16.08361816 5.63491821 -16.08361816 5.63491821 -14.23666191 2.73101234 C-9.56954131 -0.37161638 -5.49268607 -0.05780547 0 0 Z M-1.08361816 15.63491821 C-1.08361816 55.89491821 -1.08361816 96.15491821 -1.08361816 137.63491821 C83.72638184 137.63491821 168.53638184 137.63491821 255.91638184 137.63491821 C255.91638184 97.37491821 255.91638184 57.11491821 255.91638184 15.63491821 C171.10638184 15.63491821 86.29638184 15.63491821 -1.08361816 15.63491821 Z " fill="#000000" transform="translate(46.0836181640625,217.36508178710938)"/>
<path d="M0 0 C20.69830552 -0.93867716 40.54659459 4.97399172 56.09277344 19.09863281 C56.83785156 19.7521875 57.58292969 20.40574219 58.35058594 21.07910156 C71.91989389 33.7054576 80.4182825 52.02676448 81.37792969 70.50097656 C82.03535745 92.32431455 75.20639978 111.41023505 60.74902344 127.74707031 C47.33257406 141.88529071 28.38957907 150.90847529 8.83642578 151.45068359 C-14.16919498 151.65229914 -32.79395016 143.56899925 -49.59472656 127.91113281 C-63.34300803 113.59717966 -70.41039166 94.14052246 -70.12231445 74.53515625 C-70.06739844 72.38864658 -69.99332478 70.24409288 -69.90722656 68.09863281 C-69.87628906 67.19757813 -69.84535156 66.29652344 -69.81347656 65.36816406 C-68.52637647 47.70271523 -58.18527906 32.10343488 -45.90722656 20.09863281 C-45.28589844 19.44507812 -44.66457031 18.79152344 -44.02441406 18.11816406 C-35.63199109 9.89509492 -22.39920291 3.32624417 -10.90722656 1.09863281 C-9.93269531 0.90720703 -9.93269531 0.90720703 -8.93847656 0.71191406 C-5.96539338 0.27166905 -2.99910258 0.15509952 0 0 Z " fill="#27A5F8" transform="translate(250.9072265625,36.9013671875)"/>
<path d="M0 0 C20.69830552 -0.93867716 40.54659459 4.97399172 56.09277344 19.09863281 C56.83785156 19.7521875 57.58292969 20.40574219 58.35058594 21.07910156 C71.91989389 33.7054576 80.4182825 52.02676448 81.37792969 70.50097656 C82.03535745 92.32431455 75.20639978 111.41023505 60.74902344 127.74707031 C47.33257406 141.88529071 28.38957907 150.90847529 8.83642578 151.45068359 C-14.16919498 151.65229914 -32.79395016 143.56899925 -49.59472656 127.91113281 C-63.34300803 113.59717966 -70.41039166 94.14052246 -70.12231445 74.53515625 C-70.06739844 72.38864658 -69.99332478 70.24409288 -69.90722656 68.09863281 C-69.87628906 67.19757813 -69.84535156 66.29652344 -69.81347656 65.36816406 C-68.52637647 47.70271523 -58.18527906 32.10343488 -45.90722656 20.09863281 C-45.28589844 19.44507812 -44.66457031 18.79152344 -44.02441406 18.11816406 C-35.63199109 9.89509492 -22.39920291 3.32624417 -10.90722656 1.09863281 C-9.93269531 0.90720703 -9.93269531 0.90720703 -8.93847656 0.71191406 C-5.96539338 0.27166905 -2.99910258 0.15509952 0 0 Z " fill="#27A5F8" transform="translate(84.9072265625,36.9013671875)"/>
<path d="M0 0 C0 75.24 0 150.48 0 228 C-5.47259639 224.95966867 -10.69242954 222.0157183 -15.83203125 218.51953125 C-16.46212601 218.09533401 -17.09222076 217.67113678 -17.7414093 217.23408508 C-19.83014021 215.82643703 -21.91517236 214.41342147 -24 213 C-25.50814487 211.98072631 -27.01645041 210.9616903 -28.52490234 209.94287109 C-31.80998807 207.72309779 -35.09401212 205.50176367 -38.37744141 203.27954102 C-60.26444071 188.470692 -82.27348543 173.8549325 -104.36997986 159.36068726 C-105.85233998 158.38787744 -107.32675055 157.40282705 -108.79225159 156.40480042 C-110.99138076 154.94237675 -110.99138076 154.94237675 -113.47325134 153.82261658 C-117.44718432 151.76472832 -119.54824718 150.2780899 -121.07147217 145.96861267 C-121.77929606 142.02253613 -122.17447145 138.11621737 -122.42578125 134.12109375 C-122.48065075 133.39448044 -122.53552025 132.66786713 -122.59205246 131.91923523 C-122.99698728 126.42738896 -123.19932394 120.94249531 -123.3125 115.4375 C-123.33132359 114.63498432 -123.35014717 113.83246864 -123.36954117 113.00563431 C-123.97450971 81.27735033 -123.97450971 81.27735033 -114.10702515 71.0149231 C-105.65618059 63.78231593 -95.53758061 59.0015197 -85.45028687 54.47097778 C-74.60156583 49.58707915 -65.14161178 43.08273118 -55.44424438 36.24636841 C-51.11027467 33.20606944 -46.71630543 30.25618123 -42.32421875 27.30078125 C-40.72379424 26.21834154 -39.12352921 25.13566598 -37.5234375 24.05273438 C-27.94365831 17.58070844 -18.32854627 11.16025156 -8.625 4.875 C-7.89023437 4.39546875 -7.15546875 3.9159375 -6.3984375 3.421875 C-1.11897321 0 -1.11897321 0 0 0 Z " fill="#809FA7" transform="translate(497,225)"/>
<path d="M0 0 C17.13956361 -0.80341704 17.13956361 -0.80341704 23 4 C27.70460087 8.48905143 31.59967543 12.88396116 32.2515564 19.58644104 C32.25281525 20.50481247 32.2540741 21.4231839 32.25537109 22.36938477 C32.26233002 23.4171962 32.26928894 24.46500763 32.27645874 25.54457092 C32.27546173 26.66552658 32.27446472 27.78648224 32.2734375 28.94140625 C32.29371777 31.3222704 32.31456838 33.70312975 32.3359375 36.08398438 C32.35858455 39.83231676 32.37502794 43.58045963 32.38085938 47.32885742 C32.39035573 50.95005381 32.42408944 54.57039958 32.4609375 58.19140625 C32.45589203 59.31438614 32.45084656 60.43736603 32.44564819 61.59437561 C32.45891144 62.63903488 32.47217468 63.68369415 32.48583984 64.76000977 C32.48868988 65.6775856 32.49153992 66.59516144 32.49447632 67.5405426 C33.15626231 70.7602423 34.48182976 71.95569149 37 74 C39.36182723 74.79041531 39.36182723 74.79041531 41.875 75.0625 C50.29270506 76.52912797 55.07660144 80.07171233 60 87 C62.24563545 91.39629433 62.29613259 95.57876084 62.29052734 100.41113281 C62.29724457 101.24596695 62.30396179 102.08080109 62.31088257 102.94093323 C62.32984656 105.69505809 62.33378625 108.44893894 62.3359375 111.203125 C62.34236759 113.12498066 62.34909611 115.04683534 62.35610962 116.96868896 C62.36807914 120.99688993 62.37179088 125.02500517 62.37060547 129.05322266 C62.37040254 134.19894481 62.39767906 139.34411305 62.43214989 144.48970413 C62.4544603 148.46014905 62.45844171 152.43046167 62.45738602 156.40096283 C62.45973672 158.29706477 62.46853018 160.19317064 62.48405075 162.08921051 C62.50379054 164.75028987 62.49784134 167.41018803 62.48583984 170.07128906 C62.49707886 170.84459061 62.50831787 171.61789215 62.51989746 172.41462708 C62.44240909 179.22388253 60.38587105 185.17450587 55.96484375 190.41015625 C55.29582031 190.95542969 54.62679687 191.50070312 53.9375 192.0625 C52.93009766 192.91521484 52.93009766 192.91521484 51.90234375 193.78515625 C50 195 50 195 47 195 C46.99635437 193.75607483 46.99270874 192.51214966 46.98895264 191.23052979 C46.95203907 179.51756696 46.89430622 167.80486792 46.81609726 156.09210587 C46.77655904 150.07018175 46.74440163 144.04840526 46.72900391 138.02636719 C46.71387924 132.21661936 46.67950802 126.4072772 46.63169098 120.59770966 C46.61683393 118.37934644 46.60895652 116.16092532 46.60811615 113.94251251 C46.60575779 110.83916276 46.57876868 107.73694449 46.54589844 104.63378906 C46.55344398 103.25274994 46.55344398 103.25274994 46.56114197 101.84381104 C46.48975524 96.79593888 46.48975524 96.79593888 44.19244385 92.39398193 C41.92303293 90.66832516 41.92303293 90.66832516 38.375 91.0625 C34.74483076 91.6750845 34.74483076 91.6750845 33 95 C32.69796812 97.93672339 32.69796812 97.93672339 32.7484436 101.3364563 C32.74547346 101.98195431 32.74250333 102.62745231 32.73944318 103.29251087 C32.73179325 105.4595827 32.73830127 107.62638429 32.74462891 109.79345703 C32.74187936 111.34578129 32.73819968 112.89810414 32.73365784 114.45042419 C32.72553881 117.79638697 32.7233792 121.14228288 32.72560501 124.48825455 C32.72843658 129.78380038 32.71409048 135.07921261 32.69662476 140.37472534 C32.64958755 155.43436664 32.62566777 170.49399947 32.61914062 185.55371094 C32.61538453 193.86887058 32.59730801 202.18387959 32.56404626 210.49897468 C32.5438705 215.75768966 32.5414437 221.01601508 32.55232644 226.27475286 C32.55494262 229.55628999 32.54088477 232.83760275 32.52224541 236.1190815 C32.5169444 237.63432431 32.51838426 239.149609 32.52728081 240.66483498 C32.57747352 249.96839348 32.24358618 257.94650473 26.03515625 265.33984375 C25.38417969 265.86707031 24.73320312 266.39429688 24.0625 266.9375 C23.08990234 267.75541016 23.08990234 267.75541016 22.09765625 268.58984375 C17.21564162 271.87179399 12.96481395 272.26874178 7.1875 272.125 C6.49462891 272.11597656 5.80175781 272.10695313 5.08789062 272.09765625 C3.39177605 272.07426157 1.69584129 272.03839641 0 272 C0.59748047 271.18208984 0.59748047 271.18208984 1.20703125 270.34765625 C1.73683594 269.59355469 2.26664062 268.83945312 2.8125 268.0625 C3.33457031 267.33160156 3.85664063 266.60070312 4.39453125 265.84765625 C9.00628836 257.6676783 9.4082173 250.01847543 9.3359375 240.7578125 C9.34843649 238.20312239 9.36147297 235.64843487 9.375 233.09375 C9.37894776 229.0907221 9.37547454 225.08795336 9.36035156 221.08496094 C9.35182351 217.2046953 9.37337606 213.325485 9.3984375 209.4453125 C9.38509369 208.24222443 9.37174988 207.03913635 9.35800171 205.79959106 C9.36796173 204.68768402 9.37792175 203.57577698 9.38818359 202.43017578 C9.38579681 201.45138458 9.38341003 200.47259338 9.38095093 199.46414185 C10 197 10 197 12.47573853 195.28561401 C13.30874481 194.86136139 14.1417511 194.43710876 15 194 C16.45916055 191.0816789 16.13612417 188.51717792 16.14717102 185.25662231 C16.15084771 184.55536472 16.1545244 183.85410713 16.1583125 183.13159931 C16.16936912 180.77017999 16.17319648 178.40880464 16.17700195 176.04736328 C16.18326502 174.35899719 16.18991168 172.67063248 16.19691467 170.98226929 C16.21433686 166.38722917 16.22487936 161.79219947 16.2331202 157.19713449 C16.23826689 154.32831929 16.24434271 151.45950734 16.25063133 148.59069443 C16.26968525 139.62057133 16.28391698 130.65045649 16.2922433 121.68031704 C16.30202296 111.31480792 16.32836062 100.94951194 16.36874419 90.58407795 C16.3988655 82.57894395 16.41370831 74.57387119 16.41702431 66.5686816 C16.41937902 61.78418779 16.42839398 56.99992162 16.45348549 52.21548843 C16.4767022 47.71584494 16.48102542 43.21658002 16.47072411 38.71689224 C16.4702271 37.06407413 16.47659594 35.41123779 16.49028015 33.75847626 C16.50790179 31.50430798 16.50094257 29.25151277 16.48774719 26.99734497 C16.49013555 25.73524263 16.4925239 24.4731403 16.49498463 23.17279243 C15.91218133 19.43709282 14.98243945 18.24874082 12 16 C11.319375 15.896875 10.63875 15.79375 9.9375 15.6875 C9.298125 15.460625 8.65875 15.23375 8 15 C7.21288302 13.32737642 6.43735908 11.64522809 5.7890625 9.9140625 C4.5925766 7.0116957 2.78954083 4.56500852 1 2 C0.67 1.34 0.34 0.68 0 0 Z " fill="#ABD4DE" transform="translate(300,203)"/>
<path d="M0 0 C0 75.24 0 150.48 0 228 C-5.89843149 224.72309362 -11.51128874 221.46098197 -17.0625 217.6875 C-17.73732422 217.23310547 -18.41214844 216.77871094 -19.10742188 216.31054688 C-20.74046691 215.2102683 -22.37056203 214.10561338 -24 213 C-23.34 212.67 -22.68 212.34 -22 212 C-22 147.32 -22 82.64 -22 16 C-22.66 15.67 -23.32 15.34 -24 15 C-20.18989682 12.49633206 -16.37652893 9.99768267 -12.5625 7.5 C-11.47388672 6.78457031 -10.38527344 6.06914062 -9.26367188 5.33203125 C-8.22919922 4.65527344 -7.19472656 3.97851562 -6.12890625 3.28125 C-5.17056885 2.65283203 -4.21223145 2.02441406 -3.22485352 1.37695312 C-1 0 -1 0 0 0 Z " fill="#6E8A93" transform="translate(497,225)"/>
<path d="M0 0 C84.81 0 169.62 0 257 0 C257 4.95 257 9.9 257 15 C172.19 15 87.38 15 0 15 C0 10.05 0 5.1 0 0 Z " fill="#28A5F9" transform="translate(45,370)"/>
<path d="M0 0 C0.65613281 0.391875 1.31226563 0.78375 1.98828125 1.1875 C2.61347656 1.538125 3.23867188 1.88875 3.8828125 2.25 C10.760823 6.56561443 14.86456701 13.46842906 16.98828125 21.1875 C17.87104632 29.36847401 17.2420658 36.09785908 12.98828125 43.1875 C12.61445313 43.82429688 12.240625 44.46109375 11.85546875 45.1171875 C7.49084215 51.85200868 0.8609371 56.49585494 -7.01171875 58.1875 C-15.24120155 59.04278212 -21.87337073 58.47050881 -29.01171875 54.1875 C-29.64851562 53.81367188 -30.2853125 53.43984375 -30.94140625 53.0546875 C-38.22604272 48.33374283 -41.51477113 42.37618513 -43.50390625 34.01953125 C-44.99755723 25.68955461 -44.19902057 19.57037425 -40.01171875 12.1875 C-39.66109375 11.5584375 -39.31046875 10.929375 -38.94921875 10.28125 C-30.8667245 -2.51603256 -13.3289573 -7.01780567 0 0 Z " fill="#010204" transform="translate(270.01171875,84.8125)"/>
<path d="M0 0 C0.65613281 0.391875 1.31226563 0.78375 1.98828125 1.1875 C2.61347656 1.538125 3.23867187 1.88875 3.8828125 2.25 C10.760823 6.56561443 14.86456701 13.46842906 16.98828125 21.1875 C17.87104632 29.36847401 17.2420658 36.09785908 12.98828125 43.1875 C12.61445312 43.82429688 12.240625 44.46109375 11.85546875 45.1171875 C7.49084215 51.85200868 0.8609371 56.49585494 -7.01171875 58.1875 C-15.24120155 59.04278212 -21.87337073 58.47050881 -29.01171875 54.1875 C-29.64851563 53.81367188 -30.2853125 53.43984375 -30.94140625 53.0546875 C-38.22604272 48.33374283 -41.51477113 42.37618513 -43.50390625 34.01953125 C-44.99755723 25.68955461 -44.19902057 19.57037425 -40.01171875 12.1875 C-39.66109375 11.5584375 -39.31046875 10.929375 -38.94921875 10.28125 C-30.8667245 -2.51603256 -13.3289573 -7.01780567 0 0 Z " fill="#010204" transform="translate(104.01171875,84.8125)"/>
<path d="M0 0 C7.26 0 14.52 0 22 0 C22 40.26 22 80.52 22 122 C14.74 122 7.48 122 0 122 C0 81.74 0 41.48 0 0 Z " fill="#24C0FF" transform="translate(280,233)"/>
<path d="M0 0 C9.80763406 4.12129304 16.62567466 9.56117619 24 17 C24.65742188 17.62390625 25.31484375 18.2478125 25.9921875 18.890625 C38.60937112 31.79852714 44.26885902 50.51954676 44.4375 68.1875 C44.07532443 90.81864403 34.79979421 110.05783833 18.65625 125.703125 C13.04841353 130.55225419 6.94905778 134.40501972 0 137 C1.36244668 133.25494951 3.09036849 130.17617098 5.3125 126.875 C20.72304184 103.03831989 24.12516246 70.75633255 18.87255859 43.09204102 C18.08121438 39.66534194 17.12729015 36.33074617 16 33 C15.67056396 32.01459229 15.67056396 32.01459229 15.33447266 31.00927734 C12.00039056 21.35624842 7.56593073 11.90332005 1.29296875 3.79296875 C0 2 0 2 0 0 Z " fill="#3A87F2" transform="translate(288,44)"/>
<path d="M0 0 C9.80763406 4.12129304 16.62567466 9.56117619 24 17 C24.65742188 17.62390625 25.31484375 18.2478125 25.9921875 18.890625 C38.60937112 31.79852714 44.26885902 50.51954676 44.4375 68.1875 C44.07532443 90.81864403 34.79979421 110.05783833 18.65625 125.703125 C13.04841353 130.55225419 6.94905778 134.40501972 0 137 C1.36244668 133.25494951 3.09036849 130.17617098 5.3125 126.875 C20.72304184 103.03831989 24.12516246 70.75633255 18.87255859 43.09204102 C18.08121438 39.66534194 17.12729015 36.33074617 16 33 C15.67056396 32.01459229 15.67056396 32.01459229 15.33447266 31.00927734 C12.00039056 21.35624842 7.56593073 11.90332005 1.29296875 3.79296875 C0 2 0 2 0 0 Z " fill="#3A87F2" transform="translate(122,44)"/>
<path d="M0 0 C8.94918183 1.27845455 12.71972362 3.24562848 18.484375 9.8671875 C22.00703475 14.82433241 22.2974138 19.47420829 22.29052734 25.41113281 C22.30060318 26.66338402 22.30060318 26.66338402 22.31088257 27.94093323 C22.32984656 30.69505809 22.33378625 33.44893894 22.3359375 36.203125 C22.34236759 38.12498066 22.34909611 40.04683534 22.35610962 41.96868896 C22.36807914 45.99688993 22.37179088 50.02500517 22.37060547 54.05322266 C22.37040254 59.19894481 22.39767906 64.34411305 22.43214989 69.48970413 C22.4544603 73.46014905 22.45844171 77.43046167 22.45738602 81.40096283 C22.45973672 83.29706477 22.46853018 85.19317064 22.48405075 87.08921051 C22.50379054 89.75028987 22.49784134 92.41018803 22.48583984 95.07128906 C22.49707886 95.84459061 22.50831787 96.61789215 22.51989746 97.41462708 C22.44240909 104.22388253 20.38587105 110.17450587 15.96484375 115.41015625 C15.29582031 115.95542969 14.62679688 116.50070312 13.9375 117.0625 C13.26589844 117.63097656 12.59429687 118.19945312 11.90234375 118.78515625 C10 120 10 120 7 120 C6.99453156 118.13411224 6.99453156 118.13411224 6.98895264 116.23052979 C6.95203907 104.51756696 6.89430622 92.80486792 6.81609726 81.09210587 C6.77655904 75.07018175 6.74440163 69.04840526 6.72900391 63.02636719 C6.71387924 57.21661936 6.67950802 51.4072772 6.63169098 45.59770966 C6.61683393 43.37934644 6.60895652 41.16092532 6.60811615 38.94251251 C6.60575779 35.83916276 6.57876868 32.73694449 6.54589844 29.63378906 C6.5509288 28.71309631 6.55595917 27.79240356 6.56114197 26.84381104 C6.51869268 21.78415632 6.51869268 21.78415632 4.09088135 17.46038818 C2.07465935 15.97669524 2.07465935 15.97669524 0 15 C0 10.05 0 5.1 0 0 Z " fill="#596D77" transform="translate(340,278)"/>
<path d="M0 0 C5.27811704 3.0517508 9.06296684 7.71272782 12.1875 12.875 C13.66793106 19.7836783 13.32508094 26.02256886 10.15234375 32.390625 C6.61944072 37.70474099 1.82045438 41.54089881 -4.25 43.5 C-11.31124918 44.40772411 -17.47889553 43.85876667 -23.25 39.5 C-29.28159855 33.89752704 -32.20793601 28.91572656 -32.625 20.625 C-32.4564004 14.37744814 -30.67158839 10.06314262 -26.37890625 5.51953125 C-18.88130681 -1.35444933 -9.80992714 -4.32172229 0 0 Z " fill="#030304" transform="translate(182.25,416.5)"/>
<path d="M0 0 C5.27811704 3.0517508 9.06296684 7.71272782 12.1875 12.875 C13.66793106 19.7836783 13.32508094 26.02256886 10.15234375 32.390625 C6.61944072 37.70474099 1.82045438 41.54089881 -4.25 43.5 C-11.31124918 44.40772411 -17.47889553 43.85876667 -23.25 39.5 C-29.28159855 33.89752704 -32.20793601 28.91572656 -32.625 20.625 C-32.4564004 14.37744814 -30.67158839 10.06314262 -26.37890625 5.51953125 C-18.88130681 -1.35444933 -9.80992714 -4.32172229 0 0 Z " fill="#030304" transform="translate(122.25,416.5)"/>
<path d="M0 0 C5.27811704 3.0517508 9.06296684 7.71272782 12.1875 12.875 C13.66793106 19.7836783 13.32508094 26.02256886 10.15234375 32.390625 C6.61944072 37.70474099 1.82045438 41.54089881 -4.25 43.5 C-11.31124918 44.40772411 -17.47889553 43.85876667 -23.25 39.5 C-29.28159855 33.89752704 -32.20793601 28.91572656 -32.625 20.625 C-32.4564004 14.37744814 -30.67158839 10.06314262 -26.37890625 5.51953125 C-18.88130681 -1.35444933 -9.80992714 -4.32172229 0 0 Z " fill="#030304" transform="translate(62.25,416.5)"/>
<path d="M0 0 C4.9710149 2.53240382 8.49430567 5.98861134 11 11 C11.56735892 15.65048294 11.4598631 19.09730577 9.3125 23.3125 C6.27121832 26.84696249 2.8897777 30.64744712 -1.953125 31.23828125 C-7.52904883 31.41845566 -10.6168059 30.77158562 -15 27 C-19.15625516 22.28208874 -20.36072814 19.50576653 -20.28125 13.31640625 C-19.6982585 8.51482352 -16.86738294 5.76412307 -13.375 2.6875 C-8.96198422 -0.44806384 -5.32248886 -0.64623811 0 0 Z " fill="#B9EDFA" transform="translate(261,97)"/>
<path d="M0 0 C4.9710149 2.53240382 8.49430567 5.98861134 11 11 C11.56735892 15.65048294 11.4598631 19.09730577 9.3125 23.3125 C6.27121832 26.84696249 2.8897777 30.64744712 -1.953125 31.23828125 C-7.52904883 31.41845566 -10.6168059 30.77158562 -15 27 C-19.15625516 22.28208874 -20.36072814 19.50576653 -20.28125 13.31640625 C-19.6982585 8.51482352 -16.86738294 5.76412307 -13.375 2.6875 C-8.96198422 -0.44806384 -5.32248886 -0.64623811 0 0 Z " fill="#B9EDFA" transform="translate(95,97)"/>
<path d="M0 0 C7.26 0 14.52 0 22 0 C22 4.95 22 9.9 22 15 C14.74 15 7.48 15 0 15 C0 10.05 0 5.1 0 0 Z " fill="#3B88F5" transform="translate(280,370)"/>
<path d="M0 0 C2 1.625 2 1.625 3 4 C2.93439072 7.739729 2.76345433 10.0603639 0.375 13 C-3.11581787 14.46981805 -5.39148956 13.98413921 -9 13 C-11 11.375 -11 11.375 -12 9 C-11.93439072 5.260271 -11.76345433 2.9396361 -9.375 0 C-5.88418213 -1.46981805 -3.60851044 -0.98413921 0 0 Z " fill="#6B868F" transform="translate(177,431)"/>
<path d="M0 0 C2 1.625 2 1.625 3 4 C2.93439072 7.739729 2.76345433 10.0603639 0.375 13 C-3.11581787 14.46981805 -5.39148956 13.98413921 -9 13 C-11 11.375 -11 11.375 -12 9 C-11.93439072 5.260271 -11.76345433 2.9396361 -9.375 0 C-5.88418213 -1.46981805 -3.60851044 -0.98413921 0 0 Z " fill="#6B868F" transform="translate(117,431)"/>
<path d="M0 0 C2 1.625 2 1.625 3 4 C2.93439072 7.739729 2.76345433 10.0603639 0.375 13 C-3.11581787 14.46981805 -5.39148956 13.98413921 -9 13 C-11 11.375 -11 11.375 -12 9 C-11.93439072 5.260271 -11.76345433 2.9396361 -9.375 0 C-5.88418213 -1.46981805 -3.60851044 -0.98413921 0 0 Z " fill="#6B868F" transform="translate(57,431)"/>
</svg>
